<svg width="24" height="24" viewBox="0 0 24 24" fill="none" xmlns="http://www.w3.org/2000/svg">
<path d="M5.62464 9.12826C5.62479 8.41649 5.80893 7.71684 6.15919 7.09721C6.50945 6.47758 7.01393 5.95901 7.62369 5.59183C8.23345 5.22465 8.92776 5.02133 9.63927 5.00159C10.3508 4.98185 11.0553 5.14637 11.6845 5.47918C12.3136 5.812 12.8461 6.3018 13.2302 6.90106C13.6142 7.50032 13.8369 8.18868 13.8765 8.89936C13.9161 9.61003 13.7713 10.3189 13.4562 10.9571C13.1411 11.5953 12.6664 12.1413 12.0781 12.5419C13.345 13.0066 14.4438 13.8398 15.2332 14.9342C16.0226 16.0286 16.4664 17.3343 16.5075 18.6831C16.5058 18.8285 16.4479 18.9676 16.346 19.0714C16.2441 19.1751 16.106 19.2355 15.9606 19.2398C15.8153 19.2442 15.6738 19.1922 15.5659 19.0948C15.458 18.9973 15.3918 18.8619 15.3814 18.7168C15.3367 17.254 14.7241 15.866 13.6736 14.847C12.623 13.8281 11.2169 13.2582 9.75339 13.2582C8.28984 13.2582 6.88379 13.8281 5.83322 14.847C4.78264 15.866 4.1701 17.254 4.12539 18.7168C4.11787 18.8639 4.05308 19.0021 3.94488 19.1019C3.83668 19.2018 3.69369 19.2552 3.54654 19.2509C3.39939 19.2466 3.25978 19.1848 3.15763 19.0788C3.05547 18.9728 2.9989 18.831 3.00002 18.6838C3.04097 17.3349 3.48471 16.0291 4.2741 14.9345C5.0635 13.8399 6.16243 13.0066 7.42944 12.5419C6.87301 12.1633 6.41765 11.6543 6.10307 11.0592C5.78849 10.4642 5.62424 9.80131 5.62464 9.12826ZM9.75376 6.12526C8.95732 6.12526 8.19349 6.44165 7.63032 7.00482C7.06715 7.56799 6.75076 8.33182 6.75076 9.12826C6.75076 9.92471 7.06715 10.6885 7.63032 11.2517C8.19349 11.8149 8.95732 12.1313 9.75376 12.1313C10.5502 12.1313 11.314 11.8149 11.8772 11.2517C12.4404 10.6885 12.7568 9.92471 12.7568 9.12826C12.7568 8.33182 12.4404 7.56799 11.8772 7.00482C11.314 6.44165 10.5502 6.12526 9.75376 6.12526ZM15.9775 9.12826C15.8664 9.12826 15.7583 9.13577 15.6517 9.15079C15.5772 9.16411 15.5009 9.16231 15.4272 9.14549C15.3534 9.12867 15.2839 9.09717 15.2226 9.05288C15.1613 9.00859 15.1096 8.9524 15.0705 8.88768C15.0314 8.82296 15.0057 8.75102 14.995 8.67617C14.9843 8.60131 14.9888 8.52507 15.0082 8.45199C15.0276 8.37891 15.0616 8.31049 15.108 8.25081C15.1544 8.19113 15.2124 8.14141 15.2785 8.10462C15.3445 8.06783 15.4173 8.04472 15.4925 8.03667C16.2392 7.92872 17.0006 8.07211 17.6568 8.44427C18.3131 8.81644 18.8269 9.39626 19.1176 10.0925C19.4082 10.7887 19.4591 11.5618 19.2622 12.2901C19.0653 13.0184 18.6319 13.6605 18.03 14.1155C18.9147 14.5116 19.6659 15.1553 20.1928 15.9688C20.7198 16.7824 21.0002 17.731 21 18.7003C21 18.8497 20.9407 18.9929 20.8351 19.0985C20.7295 19.2041 20.5863 19.2634 20.4369 19.2634C20.2876 19.2634 20.1444 19.2041 20.0388 19.0985C19.9332 18.9929 19.8739 18.8497 19.8739 18.7003C19.8738 17.8626 19.6039 17.0472 19.1041 16.3749C18.6043 15.7025 17.9013 15.2091 17.0991 14.9676L16.6982 14.8475V13.5892L17.006 13.4323C17.4623 13.2012 17.8274 12.823 18.0423 12.3589C18.2572 11.8948 18.3094 11.3718 18.1906 10.8743C18.0717 10.3769 17.7886 9.93398 17.3871 9.61717C16.9855 9.30037 16.489 9.12813 15.9775 9.12826Z" fill="white"/>
</svg>
