<svg width="27" height="28" viewBox="0 0 27 28" fill="none" xmlns="http://www.w3.org/2000/svg">
<g clip-path="url(#clip0_866_39562)">
<circle cx="14" cy="14" r="13.25" fill="#19E3FF" stroke="#1E1D2D" stroke-width="1.5"/>
<path d="M16.0514 9.50617C16.2112 9.34323 16.4016 9.21357 16.6118 9.12468C16.822 9.03579 17.0477 8.98944 17.2759 8.9883C17.504 8.98717 17.7302 9.03127 17.9412 9.11807C18.1523 9.20486 18.344 9.33263 18.5054 9.49397C18.6667 9.65532 18.7945 9.84705 18.8813 10.0581C18.9682 10.2691 19.0123 10.4953 19.0112 10.7234C19.0101 10.9516 18.9637 11.1773 18.8749 11.3875C18.786 11.5977 18.6564 11.7882 18.4934 11.9479L17.9424 12.4999L15.4999 10.0574L16.0514 9.50617ZM15.0582 10.4999L10.0094 15.5492C9.81897 15.7396 9.68323 15.9778 9.61643 16.2387L9.00968 18.6099C8.99629 18.6625 8.9968 18.7176 9.01115 18.7698C9.0255 18.8221 9.0532 18.8697 9.09153 18.9081C9.12986 18.9464 9.1775 18.9741 9.22977 18.9885C9.28205 19.0028 9.33715 19.0033 9.38968 18.9899L11.7614 18.3839C12.0225 18.3172 12.2609 18.1815 12.4514 17.9909L17.5002 12.9414L15.0582 10.4999Z" fill="#1E1D2D"/>
</g>
<defs>
<clipPath id="clip0_866_39562">
<rect width="27" height="28" fill="white"/>
</clipPath>
</defs>
</svg>
