<svg width="81" height="66" viewBox="0 0 81 66" fill="none" xmlns="http://www.w3.org/2000/svg">
<path d="M27.5625 37.6471C27.5625 29.3282 27.5625 25.1688 30.146 22.5835C32.7331 20 36.8907 20 45.2096 20C53.5284 20 57.6878 20 60.2713 22.5835C62.8566 25.1706 62.8566 29.3282 62.8566 37.6471C62.8566 45.9659 62.8566 50.1253 60.2713 52.7088C57.6896 55.2941 53.5284 55.2941 45.2096 55.2941C36.8907 55.2941 32.7313 55.2941 30.146 52.7088C27.5625 50.1271 27.5625 45.9659 27.5625 37.6471Z" stroke="white" stroke-width="2.94118"/>
<path d="M52.2638 34.1184C54.213 34.1184 55.7932 32.5382 55.7932 30.589C55.7932 28.6397 54.213 27.0596 52.2638 27.0596C50.3145 27.0596 48.7344 28.6397 48.7344 30.589C48.7344 32.5382 50.3145 34.1184 52.2638 34.1184Z" stroke="white" stroke-width="2.94118"/>
<path d="M32.8594 39.9544L34.2888 38.6256C35.0739 37.896 36.1157 37.5066 37.1869 37.5423C38.2581 37.578 39.2716 38.0359 40.0064 38.8162L44.6776 43.775C45.6288 44.7844 47.1835 44.9203 48.2935 44.0926C49.0679 43.5146 50.0221 43.2295 50.9867 43.288C51.9513 43.3465 52.864 43.7447 53.5629 44.412L57.5653 48.2362" stroke="white" stroke-width="2.94118" stroke-linecap="round"/>
<path d="M52.6817 20C51.2656 15.1089 50.0671 12.3805 47.6145 10.9634C44.4504 9.13659 40.4327 10.2131 32.3973 12.3662C24.3619 14.5193 20.346 15.5953 18.5157 18.7604C16.6894 21.9263 17.7659 25.944 19.919 33.9793C22.072 42.0147 23.149 46.0341 26.3127 47.8592C26.8891 48.192 27.4937 48.4285 28.1457 48.5798" stroke="white" stroke-width="2.94118"/>
<path d="M72.2665 5.88281L74.4908 11.8938L80.5018 14.1181L74.4908 16.3424L72.2665 22.3534L70.0423 16.3424L64.0312 14.1181L70.0423 11.8938L72.2665 5.88281Z" fill="#A852FF"/>
<path d="M59.3231 0L60.5941 3.43487L64.029 4.70588L60.5941 5.9769L59.3231 9.41177L58.0521 5.9769L54.6172 4.70588L58.0521 3.43487L59.3231 0Z" fill="#A852FF"/>
<path d="M15.795 45.8828L16.7483 48.459L19.3244 49.4122L16.7483 50.3655L15.795 52.9416L14.8418 50.3655L12.2656 49.4122L14.8418 48.459L15.795 45.8828Z" fill="#A852FF"/>
<path d="M9.91544 41.1768L10.5509 42.8942L12.2684 43.5297L10.5509 44.1652L9.91544 45.8826L9.27993 44.1652L7.5625 43.5297L9.27993 42.8942L9.91544 41.1768Z" fill="#A852FF"/>
<path d="M7.55882 51.7646L9.46535 56.9169L14.6176 58.8235L9.46535 60.73L7.55882 65.8823L5.6523 60.73L0.5 58.8235L5.6523 56.9169L7.55882 51.7646Z" fill="#A852FF"/>
</svg>
