<svg width="24" height="24" viewBox="0 0 24 24" fill="none" xmlns="http://www.w3.org/2000/svg">
<path d="M19.6924 12.9495C19.6924 17.5029 16.0011 21.1941 11.4478 21.1941C6.89437 21.1941 3.20312 17.5029 3.20312 12.9495C3.20312 8.39608 6.89437 4.70483 11.4478 4.70483" stroke="white" stroke-width="1.49902" stroke-linecap="round" stroke-linejoin="round"/>
<path d="M6.96094 11.1226C6.96094 11.3782 7.06247 11.6233 7.24319 11.804C7.42391 11.9847 7.66902 12.0863 7.9246 12.0863C8.18017 12.0863 8.42528 11.9847 8.60601 11.804C8.78673 11.6233 8.88825 11.3782 8.88825 11.1226C8.88825 10.867 8.78673 10.6219 8.60601 10.4412C8.42528 10.2605 8.18017 10.1589 7.9246 10.1589C7.66902 10.1589 7.42391 10.2605 7.24319 10.4412C7.06247 10.6219 6.96094 10.867 6.96094 11.1226ZM14.0278 11.1226C14.0278 11.3782 14.1293 11.6233 14.31 11.804C14.4907 11.9847 14.7358 12.0863 14.9914 12.0863C15.247 12.0863 15.4921 11.9847 15.6728 11.804C15.8536 11.6233 15.9551 11.3782 15.9551 11.1226C15.9551 10.867 15.8536 10.6219 15.6728 10.4412C15.4921 10.2605 15.247 10.1589 14.9914 10.1589C14.7358 10.1589 14.4907 10.2605 14.31 10.4412C14.1293 10.6219 14.0278 10.867 14.0278 11.1226ZM14.5096 13.3711H13.5439C13.4596 13.3711 13.3873 13.4354 13.3813 13.5197C13.305 14.5135 12.4719 15.2984 11.458 15.2984C10.4442 15.2984 9.60899 14.5135 9.53471 13.5197C9.52869 13.4354 9.45641 13.3711 9.37209 13.3711H8.40643C8.38464 13.3711 8.36308 13.3755 8.34305 13.3841C8.32302 13.3926 8.30494 13.4052 8.28992 13.421C8.2749 13.4367 8.26324 13.4554 8.25566 13.4758C8.24807 13.4963 8.24473 13.518 8.24582 13.5398C8.33415 15.2322 9.74149 16.5833 11.458 16.5833C13.1745 16.5833 14.5819 15.2322 14.6702 13.5398C14.6713 13.518 14.6679 13.4963 14.6604 13.4758C14.6528 13.4554 14.6411 13.4367 14.6261 13.421C14.6111 13.4052 14.593 13.3926 14.573 13.3841C14.5529 13.3755 14.5314 13.3711 14.5096 13.3711Z" fill="white"/>
<path d="M18.2031 3.20605V9.20215" stroke="white" stroke-width="1.26234" stroke-linecap="round"/>
<path d="M21.2031 6.20386L15.207 6.20386" stroke="white" stroke-width="1.26234" stroke-linecap="round"/>
</svg>
