<svg width="16" height="16" viewBox="0 0 16 16" fill="none" xmlns="http://www.w3.org/2000/svg">
<path d="M10.0435 3.51731C10.2031 3.35455 10.3934 3.22503 10.6033 3.13624C10.8132 3.04745 11.0387 3.00115 11.2666 3.00002C11.4945 2.99889 11.7204 3.04294 11.9312 3.12964C12.142 3.21634 12.3336 3.34396 12.4948 3.50513C12.6559 3.66629 12.7836 3.85781 12.8703 4.0686C12.957 4.27939 13.0011 4.50529 13 4.73322C12.9989 4.96115 12.9526 5.1866 12.8638 5.39654C12.7751 5.60648 12.6456 5.79674 12.4828 5.95633L11.9324 6.50771L9.49266 4.06795L10.0435 3.51731ZM9.0514 4.50995L4.0083 9.55355C3.81806 9.74378 3.68247 9.98166 3.61574 10.2423L3.00967 12.6109C2.9963 12.6634 2.9968 12.7184 3.01114 12.7706C3.02547 12.8228 3.05314 12.8704 3.09143 12.9087C3.12971 12.947 3.1773 12.9747 3.22952 12.989C3.28173 13.0033 3.33678 13.0038 3.38925 12.9905L5.75834 12.3851C6.01915 12.3185 6.25722 12.1829 6.44757 11.9926L11.4907 6.94872L9.0514 4.50995Z" fill="white"/>
</svg>
