<svg width="24" height="24" viewBox="0 0 24 24" fill="none" xmlns="http://www.w3.org/2000/svg">
<path d="M15.105 13.2599C15.015 14.0549 14.6775 14.7188 14.0925 15.2516C13.5075 15.7844 12.81 16.0505 12 16.0499C11.88 16.0499 11.76 16.0424 11.64 16.0274C11.52 16.0124 11.4 15.9899 11.28 15.9599C11.16 15.9299 11.0325 15.9299 10.8975 15.9599C10.7625 15.9899 10.65 16.0499 10.56 16.1399C10.395 16.3049 10.335 16.5038 10.38 16.7366C10.425 16.9694 10.5525 17.123 10.7625 17.1974C10.9725 17.2718 11.1789 17.3243 11.3817 17.3549C11.5845 17.3855 11.7906 17.4005 12 17.3999C13.185 17.3999 14.205 16.9988 15.06 16.1966C15.915 15.3944 16.38 14.4005 16.455 13.2149L16.6575 13.3949C16.7925 13.5149 16.95 13.5749 17.13 13.5749C17.31 13.5749 17.46 13.5149 17.58 13.3949C17.715 13.2599 17.7864 13.0988 17.7942 12.9116C17.802 12.7244 17.7381 12.563 17.6025 12.4274L16.455 11.2799C16.29 11.1149 16.08 11.0324 15.825 11.0324C15.57 11.0324 15.36 11.1149 15.195 11.2799L14.0475 12.4274C13.9125 12.5624 13.845 12.7199 13.845 12.8999C13.845 13.0799 13.9125 13.2374 14.0475 13.3724C14.1825 13.5074 14.34 13.5749 14.52 13.5749C14.7 13.5749 14.8575 13.5074 14.9925 13.3724L15.105 13.2599ZM7.545 12.5849L7.3425 12.4049C7.2075 12.2849 7.05 12.2249 6.87 12.2249C6.69 12.2249 6.54 12.2849 6.42 12.4049C6.285 12.5399 6.2139 12.7013 6.2067 12.8891C6.1995 13.0769 6.2631 13.238 6.3975 13.3724L7.545 14.5199C7.71 14.6849 7.92 14.7674 8.175 14.7674C8.43 14.7674 8.64 14.6849 8.805 14.5199L9.9525 13.3724C10.0875 13.2374 10.155 13.0799 10.155 12.8999C10.155 12.7199 10.0875 12.5624 9.9525 12.4274C9.8175 12.2924 9.66 12.2249 9.48 12.2249C9.3 12.2249 9.1425 12.2924 9.0075 12.4274L8.895 12.5399C8.985 11.7449 9.3225 11.0813 9.9075 10.5491C10.4925 10.0169 11.19 9.7505 12 9.7499C12.12 9.7499 12.24 9.7574 12.36 9.7724C12.48 9.7874 12.6 9.8099 12.72 9.8399C12.84 9.8699 12.9675 9.8699 13.1025 9.8399C13.2375 9.8099 13.35 9.7499 13.44 9.6599C13.605 9.4949 13.665 9.296 13.62 9.0632C13.575 8.8304 13.4475 8.6768 13.2375 8.6024C13.0275 8.528 12.8214 8.4755 12.6192 8.4449C12.417 8.4143 12.2106 8.3993 12 8.3999C10.815 8.3999 9.795 8.801 8.94 9.6032C8.085 10.4054 7.62 11.3993 7.545 12.5849ZM4.8 20.0999C4.305 20.0999 3.8814 19.9238 3.5292 19.5716C3.177 19.2194 3.0006 18.7955 3 18.2999V7.4999C3 7.0049 3.1764 6.5813 3.5292 6.2291C3.882 5.8769 4.3056 5.7005 4.8 5.6999H7.635L8.76 4.4849C8.925 4.3049 9.1239 4.1624 9.3567 4.0574C9.5895 3.9524 9.8331 3.8999 10.0875 3.8999H13.9125C14.1675 3.8999 14.4114 3.9524 14.6442 4.0574C14.877 4.1624 15.0756 4.3049 15.24 4.4849L16.365 5.6999H19.2C19.695 5.6999 20.1189 5.8763 20.4717 6.2291C20.8245 6.5819 21.0006 7.0055 21 7.4999V18.2999C21 18.7949 20.8239 19.2188 20.4717 19.5716C20.1195 19.9244 19.6956 20.1005 19.2 20.0999H4.8ZM4.8 18.2999H19.2V7.4999H15.555L13.9125 5.6999H10.0875L8.445 7.4999H4.8V18.2999Z" fill="white"/>
</svg>
