<svg width="17" height="16" viewBox="0 0 17 16" fill="none" xmlns="http://www.w3.org/2000/svg">
<path d="M9.16322 4.67226C11.2752 4.67226 12.4739 6.07026 12.6479 7.75893H12.7012C13.0241 7.75849 13.3438 7.82165 13.6423 7.94482C13.9407 8.06798 14.2119 8.24873 14.4405 8.47674C14.6691 8.70474 14.8505 8.97554 14.9744 9.27367C15.0983 9.5718 15.1622 9.89141 15.1625 10.2143C15.1621 10.537 15.0981 10.8566 14.9742 11.1546C14.8502 11.4527 14.6688 11.7234 14.4403 11.9514C14.2117 12.1793 13.9405 12.36 13.6421 12.4831C13.3437 12.6062 13.024 12.6694 12.7012 12.6689H5.62455C5.30176 12.6694 4.98204 12.6062 4.68366 12.4831C4.38527 12.36 4.11406 12.1793 3.8855 11.9514C3.65695 11.7234 3.47552 11.4527 3.35159 11.1546C3.22766 10.8566 3.16365 10.537 3.16322 10.2143C3.16357 9.89141 3.22751 9.5718 3.3514 9.27367C3.47529 8.97554 3.6567 8.70474 3.88527 8.47674C4.11383 8.24873 4.38508 8.06798 4.6835 7.94482C4.98193 7.82165 5.3017 7.75849 5.62455 7.75893H5.67788C5.85322 6.05893 7.05122 4.67226 9.16322 4.67226ZM9.16322 5.67026C7.78188 5.67026 6.57855 6.75959 6.57855 8.26359C6.57855 8.50159 6.36588 8.68893 6.12255 8.68893H5.66255C4.82122 8.68893 4.13988 9.35559 4.13988 10.1796C4.13988 11.0029 4.82122 11.6703 5.66188 11.6703H12.6639C13.5045 11.6703 14.1859 11.0036 14.1859 10.1796C14.1859 9.35626 13.5045 8.68893 12.6639 8.68893H12.2039C11.9599 8.68893 11.7472 8.50226 11.7472 8.26359C11.7472 6.74026 10.5439 5.67026 9.16322 5.67026ZM7.16188 2.66626C8.23988 2.66626 9.19522 3.20959 9.76188 4.04093C9.56321 4.01717 9.3633 4.00538 9.16322 4.00559C8.89988 4.00559 8.64655 4.02493 8.40388 4.06226C8.10883 3.85314 7.76572 3.72195 7.40642 3.68086C7.04711 3.63978 6.68324 3.69015 6.3486 3.82727C6.01396 3.9644 5.71939 4.18385 5.49223 4.46526C5.26506 4.74666 5.11268 5.08089 5.04922 5.43693L5.00055 5.71293C4.97342 5.86738 4.89271 6.00733 4.77261 6.10817C4.65251 6.209 4.5007 6.26427 4.34388 6.26426H4.01722C3.78231 6.26401 3.5526 6.33341 3.35713 6.46368C3.16166 6.59396 3.00919 6.77925 2.91901 6.99616C2.82882 7.21306 2.80496 7.45183 2.85045 7.68229C2.89593 7.91275 3.00872 8.12455 3.17455 8.29093C2.96455 8.55759 2.79788 8.86093 2.68455 9.18893C2.33013 8.9171 2.06739 8.54331 1.93163 8.11778C1.79588 7.69225 1.79361 7.23537 1.92513 6.80851C2.05665 6.38165 2.31566 6.00527 2.66736 5.72993C3.01906 5.45459 3.4466 5.29349 3.89255 5.26826L4.06388 5.26426C4.19279 4.53627 4.57392 3.87691 5.14041 3.40185C5.70689 2.92679 6.42257 2.66637 7.16188 2.66626Z" fill="white"/>
</svg>
