<svg width="22" height="22" viewBox="0 0 22 22" fill="none" xmlns="http://www.w3.org/2000/svg">
<path d="M15.4188 18.245C14.5613 19.0763 13.625 18.945 12.7238 18.5512C11.77 18.1487 10.895 18.1312 9.88877 18.5512C8.62877 19.0937 7.96377 18.9363 7.21127 18.245C2.94127 13.8438 3.57127 7.14125 8.41877 6.89625C9.60002 6.9575 10.4225 7.54375 11.1138 7.59625C12.1463 7.38625 13.135 6.7825 14.2375 6.86125C15.5588 6.96625 16.5563 7.49125 17.2125 8.43625C14.4825 10.0725 15.13 13.6688 17.6325 14.675C17.1338 15.9875 16.4863 17.2913 15.41 18.2538L15.4188 18.245ZM11.0263 6.84375C10.895 4.8925 12.4788 3.2825 14.2988 3.125C14.5525 5.3825 12.2513 7.0625 11.0263 6.84375Z" fill="white"/>
</svg>
