<svg width="16" height="16" viewBox="0 0 16 16" fill="none" xmlns="http://www.w3.org/2000/svg">
<path d="M7.40335 8.59109C5.73851 6.94225 5.12546 4.60372 5.5844 2.46478C5.66524 2.08583 5.25851 1.79699 4.94188 2.00836C4.47367 2.31994 4.0383 2.70141 3.65008 3.15362C1.50608 5.65046 1.59872 9.48709 3.86398 11.9275C6.38861 14.6467 10.5629 14.6694 13.0522 12.0328C13.3873 11.6774 13.6745 11.2926 13.9128 10.8867C14.1074 10.5557 13.8101 10.1507 13.4438 10.2458C11.3714 10.7873 9.06819 10.2391 7.40335 8.59109Z" fill="white"/>
<path d="M10.4619 3.75073L10.1243 3.4131C9.97366 3.26248 9.72946 3.26248 9.57885 3.4131L9.24122 3.75073C9.0906 3.90134 9.0906 4.14554 9.24122 4.29616L9.57885 4.63379C9.72946 4.78441 9.97366 4.78441 10.1243 4.63379L10.4619 4.29616C10.6125 4.14554 10.6125 3.90134 10.4619 3.75073Z" fill="white"/>
<path d="M12.9463 5.82263L12.6087 5.485C12.458 5.33438 12.2138 5.33438 12.0632 5.485L11.7256 5.82263C11.575 5.97324 11.575 6.21745 11.7256 6.36807L12.0632 6.70569C12.2138 6.85631 12.458 6.85631 12.6087 6.70569L12.9463 6.36807C13.0969 6.21745 13.0969 5.97324 12.9463 5.82263Z" fill="white"/>
</svg>
