<svg width="24" height="24" viewBox="0 0 24 24" fill="none" xmlns="http://www.w3.org/2000/svg">
<path fill-rule="evenodd" clip-rule="evenodd" d="M20.6515 2.17281C20.733 2.25438 20.7887 2.35807 20.8117 2.47102C20.8347 2.58396 20.824 2.70118 20.7809 2.8081L17.3244 11.4481C16.5819 11.3607 15.8294 11.4316 15.1163 11.656C14.4032 11.8804 13.7458 12.2532 13.1872 12.75C12.6286 13.2468 12.1815 13.8563 11.8754 14.5383C11.5693 15.2203 11.4112 15.9594 11.4113 16.7069C11.4113 17.2952 11.4113 18.4716 10.5019 17.1305L8.63122 14.1916L2.75696 10.4528L2.7546 10.4516L2.27224 10.1446C2.18094 10.0864 2.10746 10.0042 2.05988 9.907C2.0123 9.80979 1.99247 9.70133 2.00256 9.59356C2.01266 9.4858 2.05229 9.38291 2.1171 9.29622C2.18191 9.20953 2.26938 9.1424 2.36989 9.10222L2.90167 8.89046L2.90284 8.88928L20.0162 2.04222C20.1233 1.99932 20.2405 1.98883 20.3535 2.01205C20.4665 2.03526 20.5701 2.09117 20.6515 2.17281ZM9.80772 13.8481L18.6244 5.03163L19.1786 3.64575L17.7926 4.19987L8.97594 13.0163L9.3736 13.2693C9.44657 13.3156 9.50843 13.3775 9.55478 13.4505L9.80772 13.8481Z" fill="white"/>
<path d="M18.2448 13.25C18.455 13.2499 18.6575 13.3293 18.8117 13.4723C18.9658 13.6152 19.0603 13.8112 19.076 14.0208L19.0781 14.0833C19.0781 14.1854 19.1156 14.2839 19.1834 14.3602C19.2512 14.4364 19.3447 14.4851 19.446 14.4971L19.4948 14.5H19.9115C20.2303 14.5 20.5371 14.6218 20.7691 14.8405C21.001 15.0593 21.1407 15.3584 21.1594 15.6767L21.1615 15.75V19.5C21.1615 19.8188 21.0397 20.1256 20.8209 20.3576C20.6022 20.5896 20.3031 20.7292 19.9848 20.7479L19.9115 20.75H14.0781C13.7593 20.75 13.4525 20.6282 13.2205 20.4095C12.9885 20.1907 12.8489 19.8916 12.8302 19.5733L12.8281 19.5V15.75C12.8281 15.4312 12.9499 15.1244 13.1687 14.8924C13.3874 14.6604 13.6865 14.5208 14.0048 14.5021L14.0781 14.5H14.4948C14.6053 14.5 14.7113 14.4561 14.7894 14.378C14.8676 14.2998 14.9115 14.1938 14.9115 14.0833C14.9114 13.8731 14.9908 13.6706 15.1337 13.5164C15.2767 13.3623 15.4726 13.2679 15.6823 13.2521L15.7448 13.25H18.2448ZM16.9948 16.1667C16.685 16.1666 16.3863 16.2816 16.1565 16.4893C15.9267 16.697 15.7822 16.9827 15.751 17.2908L15.7465 17.3542L15.7448 17.4167L15.7465 17.4792C15.7587 17.7234 15.8423 17.9587 15.9869 18.156C16.1316 18.3532 16.3309 18.5036 16.5602 18.5887C16.7895 18.6737 17.0387 18.6896 17.277 18.6344C17.5153 18.5792 17.7321 18.4553 17.9006 18.2781C18.0692 18.1009 18.1821 17.8782 18.2252 17.6374C18.2684 17.3967 18.2401 17.1486 18.1436 16.9238C18.0472 16.6991 17.887 16.5075 17.6828 16.373C17.4786 16.2384 17.2394 16.1666 16.9948 16.1667Z" fill="white"/>
</svg>
