<svg width="16" height="16" viewBox="0 0 16 16" fill="none" xmlns="http://www.w3.org/2000/svg">
<path d="M7.99988 14.0003C11.2765 14.0003 14 11.2826 14 8.00013C14 4.72347 11.2705 2 7.99385 2C4.71168 2 2 4.72347 2 8.00013C2 11.2826 4.71745 14.0003 7.99988 14.0003ZM8.00013 13.0003C5.22319 13.0003 3.00521 10.7766 3.00521 8.00013C3.00521 5.22922 5.21717 2.99994 7.99385 2.99994C10.7645 2.99994 12.9938 5.22947 12.9998 8.00013C13.0056 10.7768 10.7703 13.0003 7.99962 13.0003M7.99385 9.06482C8.27596 9.06482 8.43484 8.90594 8.44061 8.60024L8.52896 5.49426C8.53498 5.19408 8.29955 4.9707 7.98783 4.9707C7.67008 4.9707 7.4467 5.1883 7.45247 5.48824L7.52902 8.60024C7.53479 8.90017 7.69969 9.06482 7.99385 9.06482ZM7.99385 10.9766C8.32892 10.9766 8.62885 10.706 8.62885 10.3649C8.62885 10.0178 8.33494 9.75303 7.99385 9.75303C7.64673 9.75303 7.35835 10.0236 7.35835 10.3649C7.35835 10.7003 7.65251 10.9766 7.99385 10.9766Z" fill="white"/>
<circle cx="8" cy="8" r="5.25" stroke="white" stroke-width="1.5"/>
</svg>
