<svg width="52" height="52" viewBox="0 0 52 52" fill="none" xmlns="http://www.w3.org/2000/svg">
<circle cx="26" cy="26" r="26" fill="#19E3FF"/>
<path d="M17 26C17 21.7574 17 19.6361 18.3176 18.3176C19.637 17 21.7574 17 26 17C30.2426 17 32.3639 17 33.6815 18.3176C35 19.637 35 21.7574 35 26C35 30.2426 35 32.3639 33.6815 33.6815C32.3648 35 30.2426 35 26 35C21.7574 35 19.6361 35 18.3176 33.6815C17 32.3648 17 30.2426 17 26Z" stroke="#1E1D2D" stroke-width="1.5"/>
<path d="M29.5969 24.2001C30.591 24.2001 31.3969 23.3942 31.3969 22.4001C31.3969 21.406 30.591 20.6001 29.5969 20.6001C28.6028 20.6001 27.7969 21.406 27.7969 22.4001C27.7969 23.3942 28.6028 24.2001 29.5969 24.2001Z" stroke="#1E1D2D" stroke-width="1.5"/>
<path d="M19.7031 27.1764L20.4321 26.4987C20.8325 26.1266 21.3639 25.928 21.9102 25.9462C22.4565 25.9644 22.9734 26.198 23.3481 26.5959L25.7304 29.1249C26.2155 29.6397 27.0084 29.709 27.5745 29.2869C27.9695 28.9921 28.4561 28.8467 28.948 28.8765C29.44 28.9063 29.9055 29.1094 30.2619 29.4498L32.3031 31.4001" stroke="#1E1D2D" stroke-width="1.5" stroke-linecap="round"/>
</svg>
