<svg width="24" height="24" viewBox="0 0 24 24" fill="none" xmlns="http://www.w3.org/2000/svg">
<path d="M12.1003 2C14.1106 2.00004 16.0419 2.78312 17.4846 4.18318C18.9273 5.58324 19.7679 7.49017 19.8282 9.49961L19.8318 9.73153V13.9261L21.1178 17.2402C21.1524 17.3294 21.176 17.423 21.1879 17.5176L21.197 17.6613C21.1969 17.9495 21.0899 18.2275 20.8967 18.4414C20.7035 18.6552 20.4378 18.7898 20.151 18.8191L20.0328 18.8255L15.2853 18.8264C15.2823 19.654 14.9573 20.448 14.3792 21.0401C13.801 21.6323 13.015 21.9761 12.1877 21.9988C11.3604 22.0215 10.5567 21.7213 9.9469 21.1617C9.3371 20.6022 8.96907 19.8272 8.92073 19.001L8.91527 18.8246L4.16503 18.8255C3.9857 18.8256 3.80876 18.7843 3.64801 18.7048C3.48727 18.6253 3.34707 18.5097 3.23834 18.3671C3.12962 18.2245 3.05531 18.0587 3.02123 17.8826C2.98714 17.7066 2.99418 17.525 3.04182 17.3521L3.08002 17.2393L4.36785 13.9252V9.73244C4.36773 8.71697 4.56765 7.71142 4.9562 6.77322C5.34475 5.83502 5.91431 4.98256 6.63236 4.26451C7.35041 3.54647 8.20287 2.9769 9.14107 2.58835C10.0793 2.1998 11.0848 1.99988 12.1003 2ZM13.9156 18.9619L13.9193 18.8255L10.2813 18.8264C10.2792 19.2986 10.4608 19.7532 10.7876 20.094C11.1145 20.4349 11.561 20.6354 12.0329 20.6531C12.5048 20.6708 12.9652 20.5044 13.3166 20.189C13.6681 19.8736 13.8832 19.4339 13.9165 18.9628M12.1003 3.36423C10.4495 3.36419 8.86323 4.00528 7.67601 5.15228C6.4888 6.29928 5.79345 7.86254 5.73662 9.51234L5.73299 9.73153V14.0534C5.73296 14.1098 5.72594 14.166 5.71207 14.2207L5.6866 14.3008L4.45698 17.4612H19.74L18.514 14.3017C18.4936 14.249 18.4798 14.194 18.473 14.138L18.4667 14.0543V9.73244C18.4668 8.89627 18.3022 8.06827 17.9823 7.29571C17.6625 6.52315 17.1936 5.82115 16.6024 5.22981C16.0112 4.63847 15.3094 4.16935 14.5369 3.84926C13.7644 3.52916 12.9365 3.36435 12.1003 3.36423Z" fill="white"/>
</svg>
