<svg width="16" height="16" viewBox="0 0 16 16" fill="none" xmlns="http://www.w3.org/2000/svg">
<path d="M7.98314 3.65894C7.63451 3.65894 7.35156 3.37599 7.35156 3.02736V1.72631C7.35156 1.37767 7.63451 1.09473 7.98314 1.09473C8.33177 1.09473 8.61472 1.37767 8.61472 1.72631V3.02736C8.61472 3.37599 8.33177 3.65894 7.98314 3.65894Z" fill="white"/>
<path d="M4.30179 5.18482C4.1401 5.18482 3.97842 5.12335 3.85547 4.99956L2.93505 4.07914C2.68832 3.8324 2.68832 3.4324 2.93505 3.18566C3.18179 2.93893 3.58179 2.93893 3.82853 3.18566L4.74895 4.10608C4.99568 4.35282 4.99568 4.75282 4.74895 4.99956C4.626 5.12251 4.46431 5.18482 4.30263 5.18482H4.30179Z" fill="white"/>
<path d="M2.77638 8.86728H1.47533C1.1267 8.86728 0.84375 8.58434 0.84375 8.2357C0.84375 7.88707 1.1267 7.60413 1.47533 7.60413H2.77638C3.12501 7.60413 3.40796 7.88707 3.40796 8.2357C3.40796 8.58434 3.12501 8.86728 2.77638 8.86728Z" fill="white"/>
<path d="M14.4951 8.86728H13.1941C12.8454 8.86728 12.5625 8.58434 12.5625 8.2357C12.5625 7.88707 12.8454 7.60413 13.1941 7.60413H14.4951C14.8438 7.60413 15.1267 7.88707 15.1267 8.2357C15.1267 8.58434 14.8438 8.86728 14.4951 8.86728Z" fill="white"/>
<path d="M11.6704 5.18482C11.5087 5.18482 11.3471 5.12335 11.2241 4.99956C10.9774 4.75282 10.9774 4.35282 11.2241 4.10608L12.1445 3.18566C12.3913 2.93893 12.7913 2.93893 13.038 3.18566C13.2848 3.4324 13.2848 3.8324 13.038 4.07914L12.1176 4.99956C11.9946 5.12251 11.833 5.18482 11.6713 5.18482H11.6704Z" fill="white"/>
<path d="M10.7685 9.23624C10.8805 8.92382 10.9428 8.58698 10.9428 8.23582C10.9428 6.60382 9.61988 5.28003 7.98704 5.28003C6.3542 5.28003 5.03125 6.60298 5.03125 8.23582C5.03125 8.58698 5.09272 8.92382 5.20557 9.23624H10.7685Z" fill="white"/>
<path d="M12.1933 12.2173H3.7722C3.42357 12.2173 3.14062 11.9343 3.14062 11.5857C3.14062 11.237 3.42357 10.9541 3.7722 10.9541H12.1933C12.5419 10.9541 12.8248 11.237 12.8248 11.5857C12.8248 11.9343 12.5419 12.2173 12.1933 12.2173Z" fill="white"/>
<path d="M12.1933 14.9575H3.7722C3.42357 14.9575 3.14062 14.6745 3.14062 14.3259C3.14062 13.9773 3.42357 13.6943 3.7722 13.6943H12.1933C12.5419 13.6943 12.8248 13.9773 12.8248 14.3259C12.8248 14.6745 12.5419 14.9575 12.1933 14.9575Z" fill="white"/>
</svg>
