<svg width="24" height="24" viewBox="0 0 24 24" fill="none" xmlns="http://www.w3.org/2000/svg">
<path d="M3 12C3 7.7574 3 5.6361 4.3176 4.3176C5.637 3 7.7574 3 12 3C16.2426 3 18.3639 3 19.6815 4.3176C21 5.637 21 7.7574 21 12C21 16.2426 21 18.3639 19.6815 19.6815C18.3648 21 16.2426 21 12 21C7.7574 21 5.6361 21 4.3176 19.6815C3 18.3648 3 16.2426 3 12Z" stroke="white" stroke-width="1.5"/>
<path d="M15.5969 10.2001C16.591 10.2001 17.3969 9.39421 17.3969 8.4001C17.3969 7.40599 16.591 6.6001 15.5969 6.6001C14.6028 6.6001 13.7969 7.40599 13.7969 8.4001C13.7969 9.39421 14.6028 10.2001 15.5969 10.2001Z" stroke="white" stroke-width="1.5"/>
<path d="M5.70312 13.1764L6.43212 12.4987C6.83254 12.1266 7.36386 11.928 7.91016 11.9462C8.45646 11.9644 8.97338 12.198 9.34813 12.5959L11.7304 15.1249C12.2155 15.6397 13.0084 15.709 13.5745 15.2869C13.9695 14.9921 14.4561 14.8467 14.948 14.8765C15.44 14.9063 15.9055 15.1094 16.2619 15.4498L18.3031 17.4001" stroke="white" stroke-width="1.5" stroke-linecap="round"/>
</svg>
