<svg width="166" height="22" viewBox="0 0 166 22" fill="none" xmlns="http://www.w3.org/2000/svg">
<path d="M14.0481 13.356L11.5841 6.622C11.4628 6.32333 11.3368 5.96867 11.2061 5.558C11.0755 5.14733 10.9448 4.704 10.8141 4.228C10.6928 4.704 10.5668 5.152 10.4361 5.572C10.3055 5.98267 10.1795 6.342 10.0581 6.65L7.60812 13.356H14.0481ZM20.6981 21H17.7861C17.4595 21 17.1935 20.9207 16.9881 20.762C16.7828 20.594 16.6288 20.3887 16.5261 20.146L15.0141 16.016H6.62812L5.11612 20.146C5.04146 20.3607 4.89679 20.5567 4.68212 20.734C4.46746 20.9113 4.20146 21 3.88412 21H0.944122L8.91012 0.755999H12.7461L20.6981 21ZM29.8075 18.06C30.5075 18.06 31.0955 17.976 31.5715 17.808C32.0475 17.64 32.4255 17.416 32.7055 17.136C32.9949 16.856 33.2002 16.5293 33.3215 16.156C33.4522 15.7827 33.5175 15.386 33.5175 14.966C33.5175 14.5273 33.4475 14.1353 33.3075 13.79C33.1675 13.4353 32.9482 13.1367 32.6495 12.894C32.3509 12.642 31.9635 12.4507 31.4875 12.32C31.0209 12.1893 30.4562 12.124 29.7935 12.124H25.9995V18.06H29.8075ZM25.9995 3.668V9.52H28.9955C30.2835 9.52 31.2542 9.28667 31.9075 8.82C32.5702 8.35333 32.9015 7.61133 32.9015 6.594C32.9015 5.53933 32.6029 4.788 32.0055 4.34C31.4082 3.892 30.4749 3.668 29.2055 3.668H25.9995ZM29.2055 0.755999C30.5309 0.755999 31.6649 0.881999 32.6075 1.134C33.5502 1.386 34.3202 1.74533 34.9175 2.212C35.5242 2.67867 35.9675 3.24333 36.2475 3.906C36.5275 4.56867 36.6675 5.31533 36.6675 6.146C36.6675 6.622 36.5975 7.07933 36.4575 7.518C36.3175 7.94733 36.0982 8.35333 35.7995 8.736C35.5102 9.10933 35.1369 9.45 34.6795 9.758C34.2315 10.066 33.6949 10.3273 33.0695 10.542C35.8509 11.1673 37.2415 12.67 37.2415 15.05C37.2415 15.9087 37.0782 16.702 36.7515 17.43C36.4249 18.158 35.9489 18.788 35.3235 19.32C34.6982 19.8427 33.9282 20.2533 33.0135 20.552C32.0989 20.8507 31.0535 21 29.8775 21H22.2335V0.755999H29.2055ZM59.4092 10.878C59.4092 12.362 59.1619 13.7387 58.6672 15.008C58.1819 16.268 57.4912 17.36 56.5952 18.284C55.6992 19.208 54.6212 19.9313 53.3612 20.454C52.1012 20.9673 50.7012 21.224 49.1612 21.224C47.6306 21.224 46.2352 20.9673 44.9752 20.454C43.7152 19.9313 42.6325 19.208 41.7272 18.284C40.8312 17.36 40.1359 16.268 39.6412 15.008C39.1465 13.7387 38.8992 12.362 38.8992 10.878C38.8992 9.394 39.1465 8.022 39.6412 6.762C40.1359 5.49267 40.8312 4.396 41.7272 3.472C42.6325 2.548 43.7152 1.82933 44.9752 1.316C46.2352 0.793333 47.6306 0.532 49.1612 0.532C50.1879 0.532 51.1539 0.653333 52.0592 0.895998C52.9646 1.12933 53.7952 1.46533 54.5512 1.904C55.3072 2.33333 55.9839 2.86067 56.5812 3.486C57.1879 4.102 57.7012 4.79267 58.1212 5.558C58.5412 6.32333 58.8586 7.154 59.0732 8.05C59.2972 8.946 59.4092 9.88867 59.4092 10.878ZM55.5592 10.878C55.5592 9.76733 55.4099 8.77333 55.1112 7.896C54.8126 7.00933 54.3879 6.258 53.8372 5.642C53.2866 5.026 52.6146 4.55467 51.8212 4.228C51.0372 3.90133 50.1506 3.738 49.1612 3.738C48.1719 3.738 47.2806 3.90133 46.4872 4.228C45.7032 4.55467 45.0312 5.026 44.4712 5.642C43.9206 6.258 43.4959 7.00933 43.1972 7.896C42.8986 8.77333 42.7492 9.76733 42.7492 10.878C42.7492 11.9887 42.8986 12.9873 43.1972 13.874C43.4959 14.7513 43.9206 15.498 44.4712 16.114C45.0312 16.7207 45.7032 17.1873 46.4872 17.514C47.2806 17.8407 48.1719 18.004 49.1612 18.004C50.1506 18.004 51.0372 17.8407 51.8212 17.514C52.6146 17.1873 53.2866 16.7207 53.8372 16.114C54.3879 15.498 54.8126 14.7513 55.1112 13.874C55.4099 12.9873 55.5592 11.9887 55.5592 10.878ZM70.3045 17.962C71.0325 17.962 71.6812 17.8407 72.2505 17.598C72.8292 17.3553 73.3145 17.0147 73.7065 16.576C74.0985 16.1373 74.3972 15.6053 74.6025 14.98C74.8172 14.3547 74.9245 13.6547 74.9245 12.88V0.755999H78.6905V12.88C78.6905 14.084 78.4945 15.1993 78.1025 16.226C77.7198 17.2433 77.1645 18.1253 76.4365 18.872C75.7178 19.6093 74.8405 20.188 73.8045 20.608C72.7685 21.0187 71.6018 21.224 70.3045 21.224C68.9978 21.224 67.8265 21.0187 66.7905 20.608C65.7545 20.188 64.8725 19.6093 64.1445 18.872C63.4258 18.1253 62.8705 17.2433 62.4785 16.226C62.0958 15.1993 61.9045 14.084 61.9045 12.88V0.755999H65.6705V12.866C65.6705 13.6407 65.7732 14.3407 65.9785 14.966C66.1932 15.5913 66.4965 16.128 66.8885 16.576C67.2898 17.0147 67.7752 17.3553 68.3445 17.598C68.9232 17.8407 69.5765 17.962 70.3045 17.962ZM96.5177 3.85H90.4137V21H86.6477V3.85H80.5437V0.755999H96.5177V3.85ZM117.3 3.85H111.196V21H107.43V3.85H101.326V0.755999H117.3V3.85ZM123.169 21H119.389V0.755999H123.169V21ZM149.094 0.755999V21H145.776V7.924C145.776 7.40133 145.804 6.83667 145.86 6.23L139.742 17.724C139.452 18.2747 139.009 18.55 138.412 18.55H137.88C137.282 18.55 136.839 18.2747 136.55 17.724L130.362 6.188C130.39 6.496 130.413 6.79933 130.432 7.098C130.45 7.39667 130.46 7.672 130.46 7.924V21H127.142V0.755999H129.984C130.152 0.755999 130.296 0.760665 130.418 0.769999C130.539 0.779332 130.646 0.802665 130.74 0.839999C130.842 0.877332 130.931 0.937999 131.006 1.022C131.09 1.106 131.169 1.218 131.244 1.358L137.306 12.6C137.464 12.8987 137.609 13.2067 137.74 13.524C137.88 13.8413 138.015 14.168 138.146 14.504C138.276 14.1587 138.412 13.8273 138.552 13.51C138.692 13.1833 138.841 12.8707 139 12.572L144.978 1.358C145.052 1.218 145.132 1.106 145.216 1.022C145.3 0.937999 145.388 0.877332 145.482 0.839999C145.584 0.802665 145.696 0.779332 145.818 0.769999C145.939 0.760665 146.084 0.755999 146.252 0.755999H149.094ZM156.83 3.752V9.366H163.914V12.264H156.83V17.99H165.818V21H153.05V0.755999H165.818V3.752H156.83Z" fill="white"/>
</svg>
