<svg width="160" height="160" viewBox="0 0 160 160" fill="none" xmlns="http://www.w3.org/2000/svg">
<g clip-path="url(#clip0_544_5619)">
<circle cx="80" cy="80" r="80" fill="#D9D9D9"/>
<path d="M150.497 152.741C155.583 151.682 158.623 146.363 156.09 141.817C150.507 131.814 141.717 123.016 130.478 116.316C115.995 107.684 98.2416 103 80 103C61.7492 103 44.0051 107.675 29.5223 116.316C18.2826 123.016 9.49342 131.814 3.91038 141.817C1.37682 146.363 4.41709 151.682 9.50263 152.741C55.9983 162.42 103.992 162.42 150.488 152.741" fill="#636276"/>
<path d="M80 96C98.2254 96 113 81.2254 113 63C113 44.7746 98.2254 30 80 30C61.7746 30 47 44.7746 47 63C47 81.2254 61.7746 96 80 96Z" fill="#636276"/>
</g>
<defs>
<clipPath id="clip0_544_5619">
<rect width="160" height="160" rx="80" fill="white"/>
</clipPath>
</defs>
</svg>
