<svg width="160" height="160" viewBox="0 0 160 160" fill="none" xmlns="http://www.w3.org/2000/svg">
<g clip-path="url(#clip0_544_5572)">
<circle cx="80" cy="80" r="80" fill="#D9D9D9"/>
<path d="M150.497 152.741C155.583 151.682 158.623 146.363 156.09 141.817C150.507 131.814 141.717 123.016 130.478 116.316C115.995 107.684 98.2416 103 80 103C61.7492 103 44.0051 107.675 29.5223 116.316C18.2826 123.016 9.49342 131.814 3.91038 141.817C1.37682 146.363 4.41709 151.682 9.50263 152.741C55.9983 162.42 103.992 162.42 150.488 152.741" fill="#636276"/>
<path d="M80 96C98.2254 96 113 81.2254 113 63C113 44.7746 98.2254 30 80 30C61.7746 30 47 44.7746 47 63C47 81.2254 61.7746 96 80 96Z" fill="#636276"/>
</g>
<circle cx="130" cy="130" r="26" fill="#19E3FF"/>
<path d="M121 130C121 125.757 121 123.636 122.318 122.318C123.637 121 125.757 121 130 121C134.243 121 136.364 121 137.681 122.318C139 123.637 139 125.757 139 130C139 134.243 139 136.364 137.681 137.681C136.365 139 134.243 139 130 139C125.757 139 123.636 139 122.318 137.681C121 136.365 121 134.243 121 130Z" stroke="#1E1D2D" stroke-width="1.5"/>
<path d="M133.597 128.2C134.591 128.2 135.397 127.394 135.397 126.4C135.397 125.406 134.591 124.6 133.597 124.6C132.603 124.6 131.797 125.406 131.797 126.4C131.797 127.394 132.603 128.2 133.597 128.2Z" stroke="#1E1D2D" stroke-width="1.5"/>
<path d="M123.703 131.176L124.432 130.499C124.833 130.127 125.364 129.928 125.91 129.946C126.456 129.964 126.973 130.198 127.348 130.596L129.73 133.125C130.216 133.64 131.008 133.709 131.575 133.287C131.969 132.992 132.456 132.847 132.948 132.877C133.44 132.906 133.905 133.109 134.262 133.45L136.303 135.4" stroke="#1E1D2D" stroke-width="1.5" stroke-linecap="round"/>
<defs>
<clipPath id="clip0_544_5572">
<rect width="160" height="160" rx="80" fill="white"/>
</clipPath>
</defs>
</svg>
