<svg width="24" height="24" viewBox="0 0 24 24" fill="none" xmlns="http://www.w3.org/2000/svg">
<path d="M15.3421 12.6916C16.2288 11.9939 16.876 11.0373 17.1937 9.95467C17.5114 8.87207 17.4837 7.71736 17.1146 6.65121C16.7455 5.58505 16.0532 4.66046 15.1341 4.00606C14.215 3.35166 13.1148 3 11.9866 3C10.8583 3 9.75814 3.35166 8.83906 4.00606C7.91997 4.66046 7.22771 5.58505 6.85858 6.65121C6.48945 7.71736 6.4618 8.87207 6.77948 9.95467C7.09717 11.0373 7.74439 11.9939 8.6311 12.6916C7.1117 13.3003 5.78598 14.3099 4.79525 15.6128C3.80453 16.9158 3.18595 18.4631 3.00546 20.0899C2.99239 20.2087 3.00285 20.3289 3.03623 20.4436C3.06961 20.5583 3.12526 20.6654 3.20001 20.7586C3.35097 20.9469 3.57054 21.0675 3.81041 21.0939C4.05028 21.1202 4.29082 21.0503 4.47909 20.8993C4.66736 20.7483 4.78796 20.5288 4.81434 20.2889C5.01295 18.5209 5.85598 16.888 7.18238 15.7023C8.50877 14.5165 10.2255 13.861 12.0047 13.861C13.7838 13.861 15.5006 14.5165 16.827 15.7023C18.1534 16.888 18.9964 18.5209 19.195 20.2889C19.2196 20.5111 19.3256 20.7164 19.4927 20.865C19.6597 21.0137 19.8759 21.0952 20.0994 21.0939H20.1989C20.436 21.0666 20.6527 20.9467 20.8018 20.7603C20.9509 20.574 21.0203 20.3363 20.9948 20.099C20.8135 18.4675 20.1916 16.9162 19.1958 15.6113C18.2 14.3064 16.8678 13.2971 15.3421 12.6916ZM11.9866 12.0494C11.2711 12.0494 10.5716 11.8372 9.97666 11.4397C9.38172 11.0422 8.91802 10.4772 8.6442 9.8161C8.37037 9.15504 8.29873 8.42762 8.43832 7.72584C8.57792 7.02406 8.92248 6.37944 9.42843 5.87348C9.93439 5.36753 10.579 5.02297 11.2808 4.88337C11.9826 4.74378 12.71 4.81542 13.371 5.08925C14.0321 5.36307 14.5971 5.82677 14.9947 6.42171C15.3922 7.01665 15.6044 7.71611 15.6044 8.43164C15.6044 9.39113 15.2232 10.3113 14.5447 10.9898C13.8663 11.6683 12.9461 12.0494 11.9866 12.0494Z" fill="white"/>
</svg>
