<svg width="16" height="16" viewBox="0 0 16 16" fill="none" xmlns="http://www.w3.org/2000/svg">
<path d="M7.98704 10.939C9.61948 10.939 10.9428 9.61569 10.9428 7.98326C10.9428 6.35082 9.61948 5.02747 7.98704 5.02747C6.3546 5.02747 5.03125 6.35082 5.03125 7.98326C5.03125 9.61569 6.3546 10.939 7.98704 10.939Z" fill="white"/>
<path d="M7.98314 3.40637C7.63451 3.40637 7.35156 3.12343 7.35156 2.77479V1.47374C7.35156 1.12511 7.63451 0.842163 7.98314 0.842163C8.33177 0.842163 8.61472 1.12511 8.61472 1.47374V2.77479C8.61472 3.12343 8.33177 3.40637 7.98314 3.40637Z" fill="white"/>
<path d="M4.30179 4.93226C4.14011 4.93226 3.97842 4.87078 3.85547 4.74699L2.93505 3.82657C2.68832 3.57984 2.68832 3.17984 2.93505 2.9331C3.18179 2.68636 3.58179 2.68636 3.82853 2.9331L4.74895 3.85352C4.99568 4.10026 4.99568 4.50026 4.74895 4.74699C4.626 4.86994 4.46432 4.93226 4.30263 4.93226H4.30179Z" fill="white"/>
<path d="M2.77638 8.61472H1.47533C1.1267 8.61472 0.84375 8.33177 0.84375 7.98314C0.84375 7.63451 1.1267 7.35156 1.47533 7.35156H2.77638C3.12501 7.35156 3.40796 7.63451 3.40796 7.98314C3.40796 8.33177 3.12501 8.61472 2.77638 8.61472Z" fill="white"/>
<path d="M3.38137 13.2177C3.21968 13.2177 3.058 13.1562 2.93505 13.0324C2.68832 12.7857 2.68832 12.3857 2.93505 12.1389L3.85547 11.2194C4.10221 10.9726 4.50221 10.9726 4.74895 11.2194C4.99568 11.4661 4.99568 11.8661 4.74895 12.1128L3.82853 13.0324C3.70558 13.1554 3.54389 13.2177 3.38221 13.2177H3.38137Z" fill="white"/>
<path d="M7.98314 15.1251C7.63451 15.1251 7.35156 14.8422 7.35156 14.4935V13.1925C7.35156 12.8439 7.63451 12.5609 7.98314 12.5609C8.33177 12.5609 8.61472 12.8439 8.61472 13.1925V14.4935C8.61472 14.8422 8.33177 15.1251 7.98314 15.1251Z" fill="white"/>
<path d="M12.5909 13.2177C12.4292 13.2177 12.2675 13.1562 12.1445 13.0324L11.2241 12.1128C10.9774 11.8661 10.9774 11.4661 11.2241 11.2194C11.4709 10.9726 11.8709 10.9726 12.1176 11.2194L13.038 12.1389C13.2847 12.3857 13.2847 12.7857 13.038 13.0324C12.9151 13.1554 12.7534 13.2177 12.5917 13.2177H12.5909Z" fill="white"/>
<path d="M14.4951 8.61472H13.1941C12.8454 8.61472 12.5625 8.33177 12.5625 7.98314C12.5625 7.63451 12.8454 7.35156 13.1941 7.35156H14.4951C14.8438 7.35156 15.1267 7.63451 15.1267 7.98314C15.1267 8.33177 14.8438 8.61472 14.4951 8.61472Z" fill="white"/>
<path d="M11.6704 4.93226C11.5087 4.93226 11.3471 4.87078 11.2241 4.74699C10.9774 4.50026 10.9774 4.10026 11.2241 3.85352L12.1445 2.9331C12.3913 2.68636 12.7913 2.68636 13.038 2.9331C13.2847 3.17984 13.2847 3.57984 13.038 3.82657L12.1176 4.74699C11.9946 4.86994 11.833 4.93226 11.6713 4.93226H11.6704Z" fill="white"/>
</svg>
