<svg width="24" height="24" viewBox="0 0 24 24" fill="none" xmlns="http://www.w3.org/2000/svg">
<path d="M17.0433 20.28C16.0633 21.23 14.9933 21.08 13.9633 20.63C12.8733 20.17 11.8733 20.15 10.7233 20.63C9.28333 21.25 8.52333 21.07 7.66333 20.28C2.78333 15.25 3.50333 7.59 9.04333 7.31C10.3933 7.38 11.3333 8.05 12.1233 8.11C13.3033 7.87 14.4333 7.18 15.6933 7.27C17.2033 7.39 18.3433 7.99 19.0933 9.07C15.9733 10.94 16.7133 15.05 19.5733 16.2C19.0033 17.7 18.2633 19.19 17.0333 20.29L17.0433 20.28ZM12.0233 7.25C11.8733 5.02 13.6833 3.18 15.7633 3C16.0533 5.58 13.4233 7.5 12.0233 7.25Z" fill="#1E1D2D"/>
</svg>
