<svg width="24" height="24" viewBox="0 0 24 24" fill="none" xmlns="http://www.w3.org/2000/svg">
<path d="M3.7349 13.8026C3.24466 12.9222 3 12.481 3 12.0001C3 11.5191 3.24466 11.0789 3.7349 10.1985L4.98414 7.95023L6.30567 5.74367C6.82371 4.87902 7.08227 4.44624 7.49838 4.20529C7.91541 3.96526 8.41863 3.95785 9.42599 3.94117L11.9995 3.90039L14.5712 3.94117C15.5795 3.95785 16.0827 3.96526 16.4988 4.20621C16.9159 4.44716 17.1754 4.87902 17.6925 5.74367L19.0149 7.95023L20.266 10.1985C20.7553 11.0789 21 11.5191 21 12.0001C21 12.481 20.7553 12.9212 20.2651 13.8016L19.0149 16.0499L17.6934 18.2565C17.1754 19.1211 16.9168 19.5539 16.5007 19.7948C16.0837 20.0349 15.5804 20.0423 14.5731 20.059L11.9995 20.0997L9.42784 20.059C8.41955 20.0423 7.91634 20.0349 7.50023 19.7939C7.0832 19.553 6.82371 19.1211 6.3066 18.2565L4.98414 16.0499L3.7349 13.8026Z" stroke="white" stroke-width="1.5"/>
<path d="M11.999 14.7801C13.5344 14.7801 14.7792 13.5354 14.7792 11.9999C14.7792 10.4645 13.5344 9.21973 11.999 9.21973C10.4635 9.21973 9.21875 10.4645 9.21875 11.9999C9.21875 13.5354 10.4635 14.7801 11.999 14.7801Z" stroke="white" stroke-width="1.5"/>
</svg>
