<svg width="1200" height="630" viewBox="0 0 1200 630" fill="none" xmlns="http://www.w3.org/2000/svg">
<rect width="1200" height="630" fill="#E6E9ED"/>
<g clip-path="url(#clip0_4798_55131)">
<rect x="483" y="198" width="234.001" height="234.001" fill="white" fill-opacity="0.01"/>
<path fill-rule="evenodd" clip-rule="evenodd" d="M682.876 231.15H517.125C516.587 231.15 516.15 231.587 516.15 232.125V345.842L565.877 305.252L614.627 349.024L648.753 319.875L683.851 350.586V232.125C683.851 231.587 683.414 231.15 682.876 231.15ZM517.125 222.375H682.876C688.261 222.375 692.626 226.74 692.626 232.125V397.876C692.626 403.261 688.261 407.626 682.876 407.626H517.125C511.74 407.626 507.375 403.261 507.375 397.876V232.125C507.375 226.74 511.74 222.375 517.125 222.375ZM634.126 295.5C644.895 295.5 653.626 286.77 653.626 276C653.626 265.231 644.895 256.5 634.126 256.5C623.356 256.5 614.626 265.231 614.626 276C614.626 286.77 623.356 295.5 634.126 295.5Z" fill="#C0C6CC"/>
</g>
<defs>
<clipPath id="clip0_4798_55131">
<rect width="234.001" height="234.001" fill="white" transform="translate(483 198)"/>
</clipPath>
</defs>
</svg>
